<svg width="2003" height="581" viewBox="0 0 2003 581" fill="none" xmlns="http://www.w3.org/2000/svg">
         <g clip-path="url(#clip0_601_2602)">
            <rect width="2001.53" height="581" transform="translate(0.904297)" fill="#ffffff"></rect>
            <path d="M2002.44 523.989V581H0.904297V324.39C1000.97 846.481 1607.15 110 1607.15 110L1607.78 212.44C1607.71 215.364 1607.47 218.168 1607.15 221.076C1604.91 278.685 1584.74 537.344 1946.83 529.571C1965.13 529.178 1983.7 527.231 2002.44 523.989Z" fill="#E3F8FF"></path>
            <path d="M1500.12 467.024H1499.76C1498.93 475.015 1495.4 482.479 1489.74 488.159C1484.08 493.839 1476.65 497.389 1468.69 498.213V498.582C1476.65 499.407 1484.08 502.959 1489.74 508.641C1495.39 514.322 1498.93 521.786 1499.75 529.778H1500.12C1500.94 521.786 1504.48 514.322 1510.14 508.641C1515.79 502.959 1523.22 499.407 1531.18 498.582V498.213C1523.22 497.389 1515.79 493.839 1510.13 488.159C1504.48 482.479 1500.94 475.015 1500.12 467.024V467.024Z" fill="#FFC729"></path>
            <path d="M1367.31 379.457H1367.05C1366.47 385.134 1363.96 390.436 1359.94 394.471C1355.92 398.505 1350.64 401.028 1344.99 401.612V401.875C1350.64 402.461 1355.92 404.984 1359.94 409.02C1363.96 413.056 1366.47 418.358 1367.05 424.035H1367.32C1367.9 418.358 1370.41 413.056 1374.43 409.02C1378.44 404.984 1383.72 402.461 1389.38 401.875V401.612C1383.72 401.028 1378.44 398.505 1374.43 394.471C1370.41 390.436 1367.89 385.134 1367.31 379.457Z" fill="#FFC729"></path>
            <path d="M1206.43 506.886C1210.51 506.886 1213.82 503.564 1213.82 499.465C1213.82 495.366 1210.51 492.043 1206.43 492.043C1202.35 492.043 1199.04 495.366 1199.04 499.465C1199.04 503.564 1202.35 506.886 1206.43 506.886Z" fill="#FFC729"></path>
            <path d="M1613.69 438.779C1617.77 438.779 1621.08 435.456 1621.08 431.357C1621.08 427.258 1617.77 423.936 1613.69 423.936C1609.61 423.936 1606.3 427.258 1606.3 431.357C1606.3 435.456 1609.61 438.779 1613.69 438.779Z" fill="#FFC729"></path>
            <path d="M1372.45 556.751C1375.34 556.751 1377.68 554.4 1377.68 551.501C1377.68 548.601 1375.34 546.251 1372.45 546.251C1369.57 546.251 1367.23 548.601 1367.23 551.501C1367.23 554.4 1369.57 556.751 1372.45 556.751Z" fill="#FFC729"></path>
            <path d="M1433 263.073L1606.88 272.511L1610.04 102.962L1433 263.073Z" fill="#FFA162"></path>
            <path d="M1537.4 317.396L1493.32 266.349L1601.1 122.246L1534.78 268.595L1537.4 317.396Z" fill="#FA7D29"></path>
            <path d="M1534.77 268.595L1573.88 270.719L1537.39 317.396L1534.77 268.595Z" fill="#C74106"></path>
         </g>
         <defs>
            <clipPath id="clip0_601_2602">
               <rect width="2001.53" height="581" fill="#ffffff" transform="translate(0.904297)"></rect>
            </clipPath>
         </defs>
      </svg>