<svg xmlns="http://www.w3.org/2000/svg" viewBox="0 0 460 460" width="460" height="460" preserveAspectRatio="xMidYMid meet" style="width: 100%; height: 100%; transform: translate3d(0px, 0px, 0px); content-visibility: visible;"><defs><clipPath id="__lottie_element_162"><rect width="460" height="460" x="0" y="0"></rect></clipPath><clipPath id="__lottie_element_168"><path d="M0,0 L1080,0 L1080,1080 L0,1080z"></path></clipPath></defs><g clip-path="url(#__lottie_element_162)"><g transform="matrix(1,0,0,1,0,0)" opacity="1" style="display: block;"><g opacity="1" transform="matrix(1,0,0,1,230,230)"><path fill="rgb(227,248,255)" fill-opacity="1" d=" M211.08200073242188,230 C211.08200073242188,230 -211.08200073242188,230 -211.08200073242188,230 C-221.52999877929688,230 -230,221.52999877929688 -230,211.08200073242188 C-230,211.08200073242188 -230,-211.08200073242188 -230,-211.08200073242188 C-230,-221.52999877929688 -221.52999877929688,-230 -211.08200073242188,-230 C-211.08200073242188,-230 211.08200073242188,-230 211.08200073242188,-230 C221.52999877929688,-230 230,-221.52999877929688 230,-211.08200073242188 C230,-211.08200073242188 230,211.08200073242188 230,211.08200073242188 C230,221.52999877929688 221.52999877929688,230 211.08200073242188,230z"></path></g></g><g clip-path="url(#__lottie_element_168)" transform="matrix(0.425929993391037,0,0,0.425929993391037,-0.002197265625,-0.002197265625)" opacity="1" style="display: block;"><g transform="matrix(1,0,0,1,383.4640197753906,681.1195068359375)" opacity="1" style="display: block;"><g opacity="1" transform="matrix(1,0,0,1,0,0)"><path fill="rgb(0,11,79)" fill-opacity="1" d=" M308.01800537109375,-19.08099937438965 C308.01800537109375,-19.08099937438965 -176.4969940185547,-272.3190002441406 -176.4969940185547,-272.3190002441406 C-176.4969940185547,-272.3190002441406 -295.51800537109375,-44.61600112915039 -295.51800537109375,-44.61600112915039 C-391.4330139160156,138.9239959716797 93.08200073242188,392.1619873046875 189.01699829101562,208.6219940185547 C189.01699829101562,208.6219940185547 308.01800537109375,-19.08099937438965 308.01800537109375,-19.08099937438965z"></path></g></g><g transform="matrix(1,0,0,1,410.5140075683594,624.7205200195312)" opacity="1" style="display: block;"><g opacity="1" transform="matrix(1,0,0,1,0,0)"><path fill="rgb(255,199,41)" fill-opacity="1" d=" M287.35101318359375,20.395999908447266 C287.35101318359375,20.395999908447266 -197.16299438476562,-232.78199768066406 -197.16299438476562,-232.78199768066406 C-197.16299438476562,-232.78199768066406 -274.85101318359375,-84.23200225830078 -274.85101318359375,-84.23200225830078 C-370.7659912109375,99.38800048828125 113.74800109863281,352.6260070800781 209.68299865722656,169.08599853515625 C209.68299865722656,169.08599853515625 287.35101318359375,20.395999908447266 287.35101318359375,20.395999908447266z"></path></g></g><g transform="matrix(1,0,0,1,540,562.7195434570312)" opacity="1" style="display: block;"><g opacity="1" transform="matrix(1,0,0,1,0,0)"><path fill="rgb(0,10,80)" fill-opacity="1" d=" M-593,-226 C-593,-226 -201,175 -201,175 C-201,175 360,270 360,270 C360,270 -30,-137 -30,-137 C-30,-137 -593,-226 -593,-226z"></path></g></g><g transform="matrix(1,0,0,1,634.9650268554688,450.7635192871094)" opacity="1" style="display: block;"><g opacity="1" transform="matrix(1,0,0,1,0,0)"><path stroke-linecap="butt" stroke-linejoin="miter" fill-opacity="0" stroke-miterlimit="10" stroke="rgb(249,125,41)" stroke-opacity="1" stroke-width="22" d=" M-166.0780029296875,75.0250015258789 C-166.0780029296875,18.840999603271484 -100.16100311279297,-40.50211715698242 8.46500015258789,68.12388610839844 C90.00399780273438,149.6628875732422 166.0781707763672,130.94888305664062 166.0781707763672,67.51488494873047 C166.0781707763672,-2.7371158599853516 71.93971252441406,-43.30653762817383 71.93971252441406,-118.21053314208984"></path></g></g><g transform="matrix(0.9998310804367065,-0.01837879791855812,0.01837879791855812,0.9998310804367065,-11.4073486328125,53.23602294921875)" opacity="1" style="display: block;"><g opacity="1" transform="matrix(1,0,0,1,714.8880004882812,292.12200927734375)"><path fill="rgb(249,125,41)" fill-opacity="1" d=" M0,23.386999130249023 C12.907999992370605,23.386999130249023 23.386999130249023,12.907999992370605 23.386999130249023,0 C23.386999130249023,-12.928000450134277 12.907999992370605,-23.386999130249023 0,-23.386999130249023 C-12.907999992370605,-23.386999130249023 -23.386999130249023,-12.928000450134277 -23.386999130249023,0 C-23.386999130249023,12.907999992370605 -12.907999992370605,23.386999130249023 0,23.386999130249023z"></path></g><g opacity="1" transform="matrix(1,0,0,1,752.6480102539062,225.28399658203125)"><path fill="rgb(249,125,41)" fill-opacity="1" d=" M-49.7239990234375,46.722999572753906 C-49.7239990234375,46.722999572753906 -18.790000915527344,53.16699981689453 -18.790000915527344,53.16699981689453 C-6.203000068664551,20.847999572753906 13.831000328063965,-1.4550000429153442 49.7239990234375,-28.173999786376953 C49.7239990234375,-28.173999786376953 -14.373000144958496,-53.16699981689453 -14.373000144958496,-53.16699981689453 C-39.10499954223633,-26.30699920654297 -47.43600082397461,10.208000183105469 -49.7239990234375,46.722999572753906z"></path></g></g><g transform="matrix(0.9122427105903625,0,0,0.9122427105903625,511.8760070800781,184.50399780273438)" opacity="1" style="display: block;"><g opacity="1" transform="matrix(1,0,0,1,0,0)"><path fill="rgb(255,199,41)" fill-opacity="1" d=" M0,-89.33100128173828 C0,-40.00899887084961 -39.987998962402344,0 -89.33100128173828,0 C-39.987998962402344,0 0,39.987998962402344 0,89.33100128173828 C0,39.987998962402344 39.987998962402344,0 89.33100128173828,0 C39.987998962402344,0 0,-40.00899887084961 0,-89.33100128173828z"></path></g></g></g></g></svg>