<svg xmlns="http://www.w3.org/2000/svg" viewBox="0 0 460 460" width="460" height="460" preserveAspectRatio="xMidYMid meet" style="width: 100%; height: 100%; transform: translate3d(0px, 0px, 0px); content-visibility: visible;"><defs><clipPath id="__lottie_element_190"><rect width="460" height="460" x="0" y="0"></rect></clipPath><clipPath id="__lottie_element_205"><path fill="#ffffff" clip-rule="nonzero" d=" M34.75,31 C34.75,31 26,35.75 26,35.75 C26,35.75 24.5,61.25 24.5,61.25 C24.5,61.25 30.25,77.75 30.25,77.75 C30.25,77.75 61.25,58.25 61.25,58.25 C61.25,58.25 34.75,31 34.75,31" fill-opacity="1"></path></clipPath><clipPath id="__lottie_element_208"><path fill="#ffffff" clip-rule="nonzero" d=" M-3.25,7.25 C-3.25,7.25 -12,29.375 -12,29.375 C-12,29.375 -1.625,51.625 -1.625,51.625 C-1.625,51.625 8.375,47.875 8.375,47.875 C8.375,47.875 17.375,37.125 17.375,37.125 C17.375,37.125 20,24.5 20,24.5 C20,24.5 -3.25,7.25 -3.25,7.25" fill-opacity="1"></path></clipPath></defs><g clip-path="url(#__lottie_element_190)"><g transform="matrix(1,0,0,1,0,0)" opacity="1" style="display: block;"><g opacity="1" transform="matrix(1,0,0,1,230,230)"><path fill="rgb(255,199,41)" fill-opacity="1" d=" M211.08200073242188,230 C211.08200073242188,230 -211.08200073242188,230 -211.08200073242188,230 C-221.52999877929688,230 -230,221.52999877929688 -230,211.08200073242188 C-230,211.08200073242188 -230,-211.08200073242188 -230,-211.08200073242188 C-230,-221.52999877929688 -221.52999877929688,-230 -211.08200073242188,-230 C-211.08200073242188,-230 211.08200073242188,-230 211.08200073242188,-230 C221.52999877929688,-230 230,-221.52999877929688 230,-211.08200073242188 C230,-211.08200073242188 230,211.08200073242188 230,211.08200073242188 C230,221.52999877929688 221.52999877929688,230 211.08200073242188,230z"></path></g></g><g transform="matrix(2,0,0,2,174,123.04092407226562)" opacity="1" style="display: block;"><g opacity="1" transform="matrix(1,0,0,1,39.41999816894531,26)"><path fill="rgb(252,252,208)" fill-opacity="1" d=" M12.475000381469727,0 C12.475000381469727,-13.961999893188477 1.3669999837875366,-25.371000289916992 -12.475000381469727,-25.871000289916992 C-12.475000381469727,-25.871000289916992 -12.475000381469727,-19.847000122070312 -12.475000381469727,-19.847000122070312 C-1.9450000524520874,-19.349000930786133 6.474999904632568,-10.651000022888184 6.474999904632568,0 C6.474999904632568,10.651000022888184 -1.9450000524520874,19.349000930786133 -12.475000381469727,19.847000122070312 C-12.475000381469727,19.847000122070312 -12.475000381469727,25.871000289916992 -12.475000381469727,25.871000289916992 C1.3669999837875366,25.371000289916992 12.475000381469727,13.961999893188477 12.475000381469727,0z"></path></g><g opacity="1" transform="matrix(1,0,0,1,13.524999618530273,26)"><path fill="rgb(252,252,208)" fill-opacity="1" d=" M12.475000381469727,19.895000457763672 C1.5049999952316284,19.895000457763672 -7.420000076293945,10.970000267028809 -7.420000076293945,0 C-7.420000076293945,-10.970000267028809 1.5049999952316284,-19.895000457763672 12.475000381469727,-19.895000457763672 C12.793999671936035,-19.895000457763672 13.104000091552734,-19.86199951171875 13.420000076293945,-19.847000122070312 C13.420000076293945,-19.847000122070312 13.420000076293945,-25.871000289916992 13.420000076293945,-25.871000289916992 C13.105999946594238,-25.881999969482422 12.791999816894531,-25.895000457763672 12.475000381469727,-25.895000457763672 C-1.8029999732971191,-25.895000457763672 -13.420000076293945,-14.277999877929688 -13.420000076293945,0 C-13.420000076293945,14.279000282287598 -1.8029999732971191,25.895000457763672 12.475000381469727,25.895000457763672 C12.791999816894531,25.895000457763672 13.105999946594238,25.881999969482422 13.420000076293945,25.871000289916992 C13.420000076293945,25.871000289916992 13.420000076293945,19.847000122070312 13.420000076293945,19.847000122070312 C13.104000091552734,19.86199951171875 12.793999671936035,19.895000457763672 12.475000381469727,19.895000457763672z"></path></g><g opacity="1" transform="matrix(1,0,0,1,26,39.41999816894531)"><path fill="rgb(252,252,208)" fill-opacity="1" d=" M0,12.475000381469727 C13.961999893188477,12.475000381469727 25.371000289916992,1.3669999837875366 25.871000289916992,-12.475000381469727 C25.871000289916992,-12.475000381469727 19.847000122070312,-12.475000381469727 19.847000122070312,-12.475000381469727 C19.349000930786133,-1.9450000524520874 10.651000022888184,6.474999904632568 0,6.474999904632568 C-10.651000022888184,6.474999904632568 -19.349000930786133,-1.9450000524520874 -19.847000122070312,-12.475000381469727 C-19.847000122070312,-12.475000381469727 -25.871000289916992,-12.475000381469727 -25.871000289916992,-12.475000381469727 C-25.371000289916992,1.3669999837875366 -13.961999893188477,12.475000381469727 0,12.475000381469727z"></path></g><g opacity="1" transform="matrix(1,0,0,1,26,13.524999618530273)"><path fill="rgb(252,252,208)" fill-opacity="1" d=" M-19.895000457763672,12.475000381469727 C-19.895000457763672,1.5049999952316284 -10.970000267028809,-7.420000076293945 0,-7.420000076293945 C10.970000267028809,-7.420000076293945 19.895000457763672,1.5049999952316284 19.895000457763672,12.475000381469727 C19.895000457763672,12.793999671936035 19.86199951171875,13.104000091552734 19.847000122070312,13.420000076293945 C19.847000122070312,13.420000076293945 25.871000289916992,13.420000076293945 25.871000289916992,13.420000076293945 C25.881999969482422,13.105999946594238 25.895000457763672,12.791999816894531 25.895000457763672,12.475000381469727 C25.895000457763672,-1.8029999732971191 14.277999877929688,-13.420000076293945 0,-13.420000076293945 C-14.279000282287598,-13.420000076293945 -25.895000457763672,-1.8029999732971191 -25.895000457763672,12.475000381469727 C-25.895000457763672,12.791999816894531 -25.881999969482422,13.105999946594238 -25.871000289916992,13.420000076293945 C-25.871000289916992,13.420000076293945 -19.847000122070312,13.420000076293945 -19.847000122070312,13.420000076293945 C-19.86199951171875,13.104000091552734 -19.895000457763672,12.793999671936035 -19.895000457763672,12.475000381469727z"></path></g></g><g transform="matrix(1.9958531856536865,0.1287255883216858,-0.1287255883216858,1.9958531856536865,58.55743408203125,185.71658325195312)" opacity="1" style="display: block;"><g opacity="1" transform="matrix(1,0,0,1,37.94200134277344,37.797000885009766)"><path fill="rgb(0,11,80)" fill-opacity="1" d=" M29.88800048828125,-27.555999755859375 C29.547000885009766,-28.139999389648438 29.386999130249023,-28.809999465942383 29.42799949645996,-29.483999252319336 C29.468000411987305,-30.159000396728516 29.70800018310547,-30.80699920654297 30.115999221801758,-31.34600067138672 C30.38800048828125,-31.704999923706055 30.72800064086914,-32.00699996948242 31.117000579833984,-32.23400115966797 C31.506999969482422,-32.46099853515625 31.937000274658203,-32.60900115966797 32.382999420166016,-32.66899871826172 C32.83000183105469,-32.72999954223633 33.284000396728516,-32.70100021362305 33.71900177001953,-32.58599853515625 C34.154998779296875,-32.470001220703125 34.5629997253418,-32.26900100708008 34.92100143432617,-31.9950008392334 C34.9379997253418,-31.98200035095215 34.95199966430664,-31.966999053955078 34.96799850463867,-31.95400047302246 C34.96799850463867,-31.95400047302246 37.94200134277344,-36.0989990234375 37.94200134277344,-36.0989990234375 C36.472999572753906,-37.194000244140625 34.691001892089844,-37.784000396728516 32.86000061035156,-37.7859992980957 C31.02899932861328,-37.78799819946289 29.246000289916992,-37.19900131225586 27.775999069213867,-36.106998443603516 C26.30500030517578,-35.01599884033203 25.22599983215332,-33.47999954223633 24.697999954223633,-31.72599983215332 C24.170000076293945,-29.972999572753906 24.222000122070312,-28.09600067138672 24.844999313354492,-26.374000549316406 C24.844999313354492,-26.374000549316406 -21.22800064086914,-21.4950008392334 -21.22800064086914,-21.4950008392334 C-21.565000534057617,-21.45599937438965 -21.882999420166016,-21.319000244140625 -22.142000198364258,-21.097999572753906 C-22.399999618530273,-20.878000259399414 -22.586999893188477,-20.584999084472656 -22.679000854492188,-20.257999420166016 C-22.770999908447266,-19.930999755859375 -22.76300048828125,-19.583999633789062 -22.656999588012695,-19.261999130249023 C-22.551000595092773,-18.93899917602539 -22.35099983215332,-18.6560001373291 -22.08300018310547,-18.447999954223633 C-22.08300018310547,-18.447999954223633 -14.576000213623047,-12.732000350952148 -14.576000213623047,-12.732000350952148 C-14.576000213623047,-12.732000350952148 -37.354000091552734,17.2189998626709 -37.354000091552734,17.2189998626709 C-37.582000732421875,17.518999099731445 -37.75,17.861000061035156 -37.84600067138672,18.225000381469727 C-37.94300079345703,18.59000015258789 -37.96699905395508,18.969999313354492 -37.91600036621094,19.343000411987305 C-37.86600112915039,19.716999053955078 -37.742000579833984,20.077999114990234 -37.551998138427734,20.40399932861328 C-37.362998962402344,20.729999542236328 -37.111000061035156,21.013999938964844 -36.81100082397461,21.242000579833984 C-36.81100082397461,21.242000579833984 -15.059000015258789,37.78799819946289 -15.059000015258789,37.78799819946289 C-15.059000015258789,37.78799819946289 30.992000579833984,-26.410999298095703 30.992000579833984,-26.410999298095703 C30.541000366210938,-26.701000213623047 30.15999984741211,-27.09000015258789 29.88800048828125,-27.555999755859375z"></path></g><g opacity="1" transform="matrix(1,0,0,1,51.18000030517578,45.797000885009766)"><path fill="rgb(0,11,80)" fill-opacity="1" d=" M-9.28499984741211,43.979000091552734 C-8.920000076293945,44.07500076293945 -8.538999557495117,44.0989990234375 -8.164999961853027,44.04800033569336 C-7.791999816894531,43.99700164794922 -7.433000087738037,43.87200164794922 -7.10699987411499,43.68199920654297 C-6.781000137329102,43.49100112915039 -6.494999885559082,43.237998962402344 -6.26800012588501,42.9379997253418 C-6.26800012588501,42.9379997253418 16.5310001373291,12.986000061035156 16.5310001373291,12.986000061035156 C16.5310001373291,12.986000061035156 24.226999282836914,18.839000701904297 24.226999282836914,18.839000701904297 C24.499000549316406,19.024999618530273 24.81999969482422,19.128999710083008 25.149999618530273,19.136999130249023 C25.481000900268555,19.145000457763672 25.805999755859375,19.055999755859375 26.086999893188477,18.882999420166016 C26.368000030517578,18.708999633789062 26.593000411987305,18.458999633789062 26.735000610351562,18.15999984741211 C26.87700080871582,17.86199951171875 26.92799949645996,17.52899932861328 26.885000228881836,17.20199966430664 C26.885000228881836,17.20199966430664 19.125999450683594,-28.76799964904785 19.125999450683594,-28.76799964904785 C20.954999923706055,-28.66200065612793 22.76799964904785,-29.150999069213867 24.29800033569336,-30.158000946044922 C25.82699966430664,-31.165000915527344 26.990999221801758,-32.637001037597656 27.617000579833984,-34.358001708984375 C28.243000030517578,-36.07899856567383 28.29800033569336,-37.95600128173828 27.773000717163086,-39.709999084472656 C27.24799919128418,-41.46500015258789 26.172000885009766,-43.00299835205078 24.70400047302246,-44.097999572753906 C24.70400047302246,-44.097999572753906 21.729999542236328,-39.95199966430664 21.729999542236328,-39.95199966430664 C22.242000579833984,-39.54499816894531 22.628999710083008,-39.00299835205078 22.84000015258789,-38.382999420166016 C23.05900001525879,-37.74399948120117 23.08300018310547,-37.05400085449219 22.909000396728516,-36.4010009765625 C22.736000061035156,-35.74800109863281 22.37299919128418,-35.1609992980957 21.865999221801758,-34.7140007019043 C21.358999252319336,-34.266998291015625 20.73200035095215,-33.97999954223633 20.062000274658203,-33.888999938964844 C19.392000198364258,-33.79899978637695 18.711000442504883,-33.909000396728516 18.104000091552734,-34.20500183105469 C17.98200035095215,-34.263999938964844 17.867000579833984,-34.33700180053711 17.753999710083008,-34.40999984741211 C17.753999710083008,-34.40999984741211 -28.29800033569336,29.788000106811523 -28.29800033569336,29.788000106811523 C-28.29800033569336,29.788000106811523 -10.289999961853027,43.486000061035156 -10.289999961853027,43.486000061035156 C-9.991000175476074,43.71500015258789 -9.649999618530273,43.882999420166016 -9.28499984741211,43.979000091552734z"></path></g><g opacity="1" transform="matrix(1,0,0,1,39.05500030517578,46.095001220703125)"><path fill="rgb(0,11,80)" fill-opacity="1" d=" M38.2140007019043,-32.06399917602539 C38.2140007019043,-32.06399917602539 34.51599884033203,-35.60900115966797 34.51599884033203,-35.60900115966797 C34.362998962402344,-35.393001556396484 34.19200134277344,-35.18899917602539 33.992000579833984,-35.012001037597656 C33.48500061035156,-34.564998626708984 32.856998443603516,-34.27799987792969 32.1879997253418,-34.1879997253418 C31.51799964904785,-34.09700012207031 30.836999893188477,-34.207000732421875 30.229999542236328,-34.50299835205078 C30.107999801635742,-34.5629997253418 29.993000030517578,-34.6349983215332 29.8799991607666,-34.70800018310547 C29.429000854492188,-34.999000549316406 29.04800033569336,-35.387001037597656 28.775999069213867,-35.854000091552734 C28.434999465942383,-36.4370002746582 28.274999618530273,-37.10900115966797 28.31599998474121,-37.78300094604492 C28.356000900268555,-38.45800018310547 28.594999313354492,-39.10499954223633 29.003999710083008,-39.643001556396484 C29.187000274658203,-39.88600158691406 29.410999298095703,-40.0890007019043 29.649999618530273,-40.27299880981445 C29.649999618530273,-40.27299880981445 25.972000122070312,-43.80099868774414 25.972000122070312,-43.80099868774414 C24.86199951171875,-42.77399826049805 24.024999618530273,-41.48099899291992 23.586000442504883,-40.02299880981445 C23.058000564575195,-38.27000045776367 23.108999252319336,-36.393001556396484 23.73200035095215,-34.67100143432617 C23.73200035095215,-34.67100143432617 -22.34000015258789,-29.79400062561035 -22.34000015258789,-29.79400062561035 C-22.67799949645996,-29.7549991607666 -22.996000289916992,-29.614999771118164 -23.253999710083008,-29.395000457763672 C-23.51300048828125,-29.174999237060547 -23.700000762939453,-28.884000778198242 -23.791000366210938,-28.55699920654297 C-23.882999420166016,-28.229999542236328 -23.875,-27.881999969482422 -23.768999099731445,-27.55900001525879 C-23.663000106811523,-27.23699951171875 -23.46299934387207,-26.952999114990234 -23.19499969482422,-26.743999481201172 C-23.19499969482422,-26.743999481201172 -15.687999725341797,-21.02899932861328 -15.687999725341797,-21.02899932861328 C-15.687999725341797,-21.02899932861328 -38.465999603271484,8.92300033569336 -38.465999603271484,8.92300033569336 C-38.69499969482422,9.222000122070312 -38.86199951171875,9.562999725341797 -38.95899963378906,9.928000450134277 C-39.05500030517578,10.291999816894531 -39.07899856567383,10.67300033569336 -39.02799987792969,11.04699993133545 C-38.97800064086914,11.420000076293945 -38.854000091552734,11.779000282287598 -38.665000915527344,12.104999542236328 C-38.474998474121094,12.430999755859375 -38.222999572753906,12.715999603271484 -37.92300033569336,12.944999694824219 C-37.92300033569336,12.944999694824219 -16.17099952697754,29.490999221801758 -16.17099952697754,29.490999221801758 C-16.17099952697754,29.490999221801758 1.8350000381469727,43.1879997253418 1.8350000381469727,43.1879997253418 C2.134999990463257,43.41699981689453 2.4769999980926514,43.58399963378906 2.8420000076293945,43.680999755859375 C3.2070000171661377,43.777000427246094 3.5869998931884766,43.80099868774414 3.9600000381469727,43.75 C4.334000110626221,43.69900131225586 4.693999767303467,43.57400131225586 5.019999980926514,43.382999420166016 C5.3460001945495605,43.19300079345703 5.63100004196167,42.941001892089844 5.857999801635742,42.63999938964844 C5.857999801635742,42.63999938964844 28.656999588012695,12.689000129699707 28.656999588012695,12.689000129699707 C28.656999588012695,12.689000129699707 36.35200119018555,18.541000366210938 36.35200119018555,18.541000366210938 C36.625,18.726999282836914 36.94599914550781,18.83099937438965 37.2760009765625,18.839000701904297 C37.60599899291992,18.84600067138672 37.93199920654297,18.757999420166016 38.2130012512207,18.584999084472656 C38.49399948120117,18.41200065612793 38.71900177001953,18.160999298095703 38.861000061035156,17.863000869750977 C39.00299835205078,17.565000534057617 39.05500030517578,17.23200035095215 39.012001037597656,16.90399932861328 C39.012001037597656,16.90399932861328 31.25200080871582,-29.06599998474121 31.25200080871582,-29.06599998474121 C33.08100128173828,-28.961000442504883 34.89400100708008,-29.448999404907227 36.42300033569336,-30.45599937438965 C37.10200119018555,-30.902999877929688 37.694000244140625,-31.452999114990234 38.2140007019043,-32.06399917602539z"></path></g><g opacity="1" transform="matrix(1,0,0,1,72.25199890136719,7.019999980926514)"><path fill="rgb(0,11,80)" fill-opacity="1" d=" M-3.193000078201294,-1.4559999704360962 C-2.803999900817871,-1.6829999685287476 -2.374000072479248,-1.8309999704360962 -1.9270000457763672,-1.8919999599456787 C-1.4809999465942383,-1.9520000219345093 -1.0269999504089355,-1.9229999780654907 -0.5910000205039978,-1.8079999685287476 C-0.15600000321865082,-1.6920000314712524 0.2529999911785126,-1.4919999837875366 0.6110000014305115,-1.218000054359436 C0.6269999742507935,-1.2050000429153442 0.640999972820282,-1.1890000104904175 0.6579999923706055,-1.1759999990463257 C1.1690000295639038,-0.7689999938011169 1.5570000410079956,-0.22599999606609344 1.7680000066757202,0.3930000066757202 C1.9859999418258667,1.0329999923706055 2.009999990463257,1.722000002861023 1.8370000123977661,2.375 C1.7319999933242798,2.7699999809265137 1.5509999990463257,3.134999990463257 1.3179999589920044,3.4649999141693115 C1.3179999589920044,3.4649999141693115 5.015999794006348,7.011000156402588 5.015999794006348,7.011000156402588 C5.666999816894531,6.24399995803833 6.197000026702881,5.375999927520752 6.545000076293945,4.418000221252441 C7.171000003814697,2.697000026702881 7.22599983215332,0.8199999928474426 6.701000213623047,-0.9340000152587891 C6.176000118255615,-2.688999891281128 5.099999904632568,-4.2270002365112305 3.63100004196167,-5.321000099182129 C2.1630001068115234,-6.415999889373779 0.38100001215934753,-7.007999897003174 -1.4500000476837158,-7.008999824523926 C-3.2820000648498535,-7.011000156402588 -5.065000057220459,-6.421999931335449 -6.534999847412109,-5.329999923706055 C-6.7820000648498535,-5.146999835968018 -7.001999855041504,-4.933000087738037 -7.22599983215332,-4.724999904632568 C-7.22599983215332,-4.724999904632568 -3.5480000972747803,-1.1990000009536743 -3.5480000972747803,-1.1990000009536743 C-3.431999921798706,-1.2879999876022339 -3.319999933242798,-1.3819999694824219 -3.193000078201294,-1.4559999704360962z"></path></g></g><g transform="matrix(1.9984930753707886,0.07762361317873001,-0.07762361317873001,1.9984930753707886,237.1249237060547,170.2920684814453)" opacity="1" style="display: block;"><g opacity="1" transform="matrix(1,0,0,1,46.987998962402344,37.17300033569336)"><path fill="rgb(249,105,42)" fill-opacity="1" d=" M36.066001892089844,19.618000030517578 C36.066001892089844,19.618000030517578 29.41900062561035,20.520000457763672 29.41900062561035,20.520000457763672 C29.41900062561035,20.520000457763672 28.516000747680664,13.868000030517578 28.516000747680664,13.868000030517578 C28.516000747680664,13.868000030517578 21.864999771118164,14.770000457763672 21.864999771118164,14.770000457763672 C21.864999771118164,14.770000457763672 20.96299934387207,8.118000030517578 20.96299934387207,8.118000030517578 C20.96299934387207,8.118000030517578 16.687999725341797,4.860000133514404 16.687999725341797,4.860000133514404 C16.687999725341797,4.860000133514404 10.03600025177002,5.770999908447266 10.03600025177002,5.770999908447266 C10.03600025177002,5.770999908447266 9.133000373840332,-0.8809999823570251 9.133000373840332,-0.8809999823570251 C9.133000373840332,-0.8809999823570251 2.811000108718872,-5.980999946594238 2.811000108718872,-5.980999946594238 C2.140000104904175,-6.52400016784668 1.6169999837875366,-7.228000164031982 1.2899999618530273,-8.027000427246094 C0.9629999995231628,-8.826000213623047 0.8450000286102295,-9.694000244140625 0.9430000185966492,-10.550999641418457 C1.5110000371932983,-15.800999641418457 0.33399999141693115,-21.091999053955078 -2.4059998989105225,-25.60700035095215 C-5.144999980926514,-30.121999740600586 -9.295000076293945,-33.608001708984375 -14.21399974822998,-35.52799987792969 C-19.134000778198242,-37.448001861572266 -24.54800033569336,-37.694000244140625 -29.621999740600586,-36.229000091552734 C-34.69499969482422,-34.76300048828125 -39.14500045776367,-31.667999267578125 -42.28300094604492,-27.42099952697754 C-42.28300094604492,-27.42099952697754 -36.75699996948242,-23.341999053955078 -36.75699996948242,-23.341999053955078 C-36.09400177001953,-24.268999099731445 -35.24700164794922,-25.05699920654297 -34.25299835205078,-25.63599967956543 C-32.86899948120117,-26.441999435424805 -31.274999618530273,-26.81999969482422 -29.676000595092773,-26.722000122070312 C-28.07699966430664,-26.62299919128418 -26.542999267578125,-26.05299949645996 -25.26799964904785,-25.082000732421875 C-24.41900062561035,-24.437000274658203 -23.70800018310547,-23.631999969482422 -23.17099952697754,-22.711000442504883 C-22.635000228881836,-21.790000915527344 -22.28499984741211,-20.77199935913086 -22.14299964904785,-19.715999603271484 C-22.000999450683594,-18.65999984741211 -22.06800079345703,-17.586000442504883 -22.341999053955078,-16.55699920654297 C-22.61400032043457,-15.531999588012695 -23.086999893188477,-14.571000099182129 -23.729999542236328,-13.72700023651123 C-23.729999542236328,-13.72700023651123 42.28300094604492,37.17300033569336 42.28300094604492,37.17300033569336 C42.28300094604492,37.17300033569336 40.340999603271484,22.875999450683594 40.340999603271484,22.875999450683594 C40.340999603271484,22.875999450683594 36.066001892089844,19.618000030517578 36.066001892089844,19.618000030517578z"></path></g><g opacity="1" transform="matrix(1,0,0,1,45.862998962402344,40.53099822998047)"><path fill="rgb(249,105,42)" fill-opacity="1" d=" M43.409000396728516,33.81399917602539 C43.409000396728516,33.81399917602539 41.46699905395508,19.51799964904785 41.46699905395508,19.51799964904785 C41.46699905395508,19.51799964904785 37.19200134277344,16.260000228881836 37.19200134277344,16.260000228881836 C37.19200134277344,16.260000228881836 30.54400062561035,17.16200065612793 30.54400062561035,17.16200065612793 C30.54400062561035,17.16200065612793 29.642000198364258,10.510000228881836 29.642000198364258,10.510000228881836 C29.642000198364258,10.510000228881836 22.989999771118164,11.411999702453613 22.989999771118164,11.411999702453613 C22.989999771118164,11.411999702453613 22.08799934387207,4.760000228881836 22.08799934387207,4.760000228881836 C22.08799934387207,4.760000228881836 17.812999725341797,1.5019999742507935 17.812999725341797,1.5019999742507935 C17.812999725341797,1.5019999742507935 11.16100025177002,2.4130001068115234 11.16100025177002,2.4130001068115234 C11.16100025177002,2.4130001068115234 10.258999824523926,-4.239999771118164 10.258999824523926,-4.239999771118164 C10.258999824523926,-4.239999771118164 3.936000108718872,-9.33899974822998 3.936000108718872,-9.33899974822998 C3.265000104904175,-9.881999969482422 2.742000102996826,-10.586000442504883 2.4159998893737793,-11.385000228881836 C2.0889999866485596,-12.182999610900879 1.968999981880188,-13.053000450134277 2.066999912261963,-13.90999984741211 C2.635999917984009,-19.15999984741211 1.4589999914169312,-24.450000762939453 -1.2799999713897705,-28.96500015258789 C-4.019999980926514,-33.479000091552734 -8.170000076293945,-36.965999603271484 -13.08899974822998,-38.88600158691406 C-13.25100040435791,-38.94900131225586 -13.416999816894531,-38.99599838256836 -13.579000473022461,-39.05500030517578 C-13.579000473022461,-39.05500030517578 -23.875,-28.21500015258789 -23.875,-28.21500015258789 C-23.14699935913086,-27.610000610351562 -22.523000717163086,-26.88800048828125 -22.04599952697754,-26.069000244140625 C-21.509000778198242,-25.148000717163086 -21.15999984741211,-24.1299991607666 -21.01799964904785,-23.073999404907227 C-20.875999450683594,-22.01799964904785 -20.944000244140625,-20.94499969482422 -21.216999053955078,-19.915000915527344 C-21.48900032043457,-18.891000747680664 -21.961000442504883,-17.929000854492188 -22.604000091552734,-17.084999084472656 C-22.60700035095215,-17.08099937438965 -22.608999252319336,-17.077999114990234 -22.613000869750977,-17.073999404907227 C-22.613000869750977,-17.073999404907227 -22.604000091552734,-17.086999893188477 -22.604000091552734,-17.086999893188477 C-23.575000762939453,-15.812000274658203 -24.902000427246094,-14.854000091552734 -26.41699981689453,-14.333000183105469 C-27.93199920654297,-13.812000274658203 -29.56800079345703,-13.751999855041504 -31.117000579833984,-14.16100025177002 C-32.60900115966797,-14.553999900817871 -33.95000076293945,-15.37399959564209 -34.994998931884766,-16.506999969482422 C-34.994998931884766,-16.506999969482422 -43.94200134277344,-7.086999893188477 -43.94200134277344,-7.086999893188477 C-43.1619987487793,-5.251999855041504 -42.159000396728516,-3.506999969482422 -40.933998107910156,-1.9019999504089355 C-37.7760009765625,2.2360000610351562 -33.36000061035156,5.236999988555908 -28.350000381469727,6.650000095367432 C-23.34000015258789,8.062000274658203 -18.006000518798828,7.810999870300293 -13.152000427246094,5.932000160217285 C-12.338000297546387,5.613999843597412 -11.456000328063965,5.510000228881836 -10.59000015258789,5.629000186920166 C-9.725000381469727,5.748000144958496 -8.904000282287598,6.085999965667725 -8.206000328063965,6.611000061035156 C-8.206000328063965,6.611000061035156 34.472999572753906,39.05500030517578 34.472999572753906,39.05500030517578 C34.472999572753906,39.05500030517578 43.94200134277344,37.737998962402344 43.94200134277344,37.737998962402344 C43.94200134277344,37.737998962402344 43.409000396728516,33.81399917602539 43.409000396728516,33.81399917602539z"></path></g><g opacity="1" transform="matrix(1,0,0,1,16.142000198364258,16.722000122070312)"><path fill="rgb(249,105,42)" fill-opacity="1" d=" M-5.39900016784668,7.178999900817871 C-6.460000038146973,5.978000164031982 -7.140999794006348,4.489999771118164 -7.355999946594238,2.9030001163482666 C-7.571000099182129,1.315000057220459 -7.310999870300293,-0.3009999990463257 -6.607999801635742,-1.7410000562667847 C-6.409999847412109,-2.1470000743865967 -6.171000003814697,-2.5280001163482666 -5.909999847412109,-2.8919999599456787 C-5.247000217437744,-3.819000005722046 -4.400000095367432,-4.60699987411499 -3.4059998989105225,-5.185999870300293 C-2.0220000743865967,-5.992000102996826 -0.42899999022483826,-6.369999885559082 1.1699999570846558,-6.271999835968018 C2.7690000534057617,-6.172999858856201 4.302999973297119,-5.6020002365112305 5.578000068664551,-4.631999969482422 C5.671000003814697,-4.560999870300293 5.75600004196167,-4.480999946594238 5.8460001945495605,-4.4070000648498535 C5.8460001945495605,-4.4070000648498535 16.142000198364258,-15.246000289916992 16.142000198364258,-15.246000289916992 C11.352999687194824,-16.996999740600586 6.13100004196167,-17.195999145507812 1.2239999771118164,-15.779000282287598 C-3.8489999771118164,-14.312999725341797 -8.298999786376953,-11.218000411987305 -11.437000274658203,-6.9710001945495605 C-11.437000274658203,-6.9710001945495605 -11.437000274658203,-6.958000183105469 -11.437000274658203,-6.958000183105469 C-14.531000137329102,-2.7709999084472656 -16.180999755859375,2.305999994277954 -16.141000747680664,7.51200008392334 C-16.115999221801758,10.697999954223633 -15.45199966430664,13.824999809265137 -14.220999717712402,16.722000122070312 C-14.220999717712402,16.722000122070312 -5.27400016784668,7.301000118255615 -5.27400016784668,7.301000118255615 C-5.314000129699707,7.257999897003174 -5.360000133514404,7.2230000495910645 -5.39900016784668,7.178999900817871z"></path></g><g opacity="1" transform="matrix(1,0,0,1,44.90299987792969,44.66899871826172)"><path fill="rgb(249,105,42)" fill-opacity="1" d=" M-21.652000427246094,-21.211000442504883 C-21.652000427246094,-21.211000442504883 -21.643999099731445,-21.224000930786133 -21.643999099731445,-21.224000930786133 C-22.61400032043457,-19.948999404907227 -23.94099998474121,-18.990999221801758 -25.45599937438965,-18.469999313354492 C-26.97100067138672,-17.950000762939453 -28.60700035095215,-17.889999389648438 -30.1560001373291,-18.298999786376953 C-31.704999923706055,-18.70800018310547 -33.097999572753906,-19.566999435424805 -34.159000396728516,-20.767000198364258 C-35.220001220703125,-21.968000411987305 -35.902000427246094,-23.45599937438965 -36.117000579833984,-25.04400062561035 C-36.332000732421875,-26.631000518798828 -36.07099914550781,-28.246999740600586 -35.36800003051758,-29.687000274658203 C-35.16999816894531,-30.093000411987305 -34.930999755859375,-30.474000930786133 -34.67100143432617,-30.83799934387207 C-34.67100143432617,-30.83799934387207 -40.196998596191406,-34.91699981689453 -40.196998596191406,-34.91699981689453 C-40.196998596191406,-34.91699981689453 -40.196998596191406,-34.90399932861328 -40.196998596191406,-34.90399932861328 C-43.29100036621094,-30.718000411987305 -44.94200134277344,-25.639999389648438 -44.9010009765625,-20.434999465942383 C-44.861000061035156,-15.229000091552734 -43.13199996948242,-10.178000450134277 -39.9739990234375,-6.039000034332275 C-36.816001892089844,-1.9010000228881836 -32.39899826049805,1.100000023841858 -27.388999938964844,2.51200008392334 C-22.378999710083008,3.924999952316284 -17.04599952697754,3.671999931335449 -12.190999984741211,1.7929999828338623 C-11.376999855041504,1.4759999513626099 -10.494999885559082,1.371999979019165 -9.630000114440918,1.4910000562667847 C-8.763999938964844,1.6100000143051147 -7.942999839782715,1.9479999542236328 -7.244999885559082,2.4730000495910645 C-7.244999885559082,2.4730000495910645 35.43299865722656,34.91699981689453 35.43299865722656,34.91699981689453 C35.43299865722656,34.91699981689453 44.90299987792969,33.599998474121094 44.90299987792969,33.599998474121094 C44.90299987792969,33.599998474121094 44.369998931884766,29.677000045776367 44.369998931884766,29.677000045776367 C44.369998931884766,29.677000045776367 -21.64299964904785,-21.224000930786133 -21.64299964904785,-21.224000930786133 C-21.645999908447266,-21.219999313354492 -21.64900016784668,-21.21500015258789 -21.652000427246094,-21.211000442504883z"></path></g><g opacity="1" transform="matrix(1,0,0,1,71.95899963378906,64.33100128173828)"><path fill="rgb(0,11,80)" fill-opacity="1" d=" M-17.485000610351562,-13.559000015258789 C-17.84600067138672,-13.092000007629395 -17.759000778198242,-12.420999526977539 -17.292999267578125,-12.0600004196167 C-17.292999267578125,-12.0600004196167 16.57699966430664,14.11400032043457 16.57699966430664,14.11400032043457 C16.57699966430664,14.11400032043457 17.84600067138672,13.937000274658203 17.84600067138672,13.937000274658203 C17.84600067138672,13.937000274658203 17.611000061035156,12.211999893188477 17.611000061035156,12.211999893188477 C17.611000061035156,12.211999893188477 -15.986000061035156,-13.75100040435791 -15.986000061035156,-13.75100040435791 C-16.45400047302246,-14.11400032043457 -17.125,-14.026000022888184 -17.485000610351562,-13.559000015258789z"></path></g></g><g clip-path="url(#__lottie_element_205)" transform="matrix(2,0,0,2,174,123.04092407226562)" opacity="1" style="display: block;"><g opacity="1" transform="matrix(1,0,0,1,39.41999816894531,26)"><path fill="rgb(252,252,208)" fill-opacity="1" d=" M12.475000381469727,0 C12.475000381469727,-13.961999893188477 1.3669999837875366,-25.371000289916992 -12.475000381469727,-25.871000289916992 C-12.475000381469727,-25.871000289916992 -12.475000381469727,-19.847000122070312 -12.475000381469727,-19.847000122070312 C-1.9450000524520874,-19.349000930786133 6.474999904632568,-10.651000022888184 6.474999904632568,0 C6.474999904632568,10.651000022888184 -1.9450000524520874,19.349000930786133 -12.475000381469727,19.847000122070312 C-12.475000381469727,19.847000122070312 -12.475000381469727,25.871000289916992 -12.475000381469727,25.871000289916992 C1.3669999837875366,25.371000289916992 12.475000381469727,13.961999893188477 12.475000381469727,0z"></path></g><g opacity="1" transform="matrix(1,0,0,1,13.524999618530273,26)"><path fill="rgb(252,252,208)" fill-opacity="1" d=" M12.475000381469727,19.895000457763672 C1.5049999952316284,19.895000457763672 -7.420000076293945,10.970000267028809 -7.420000076293945,0 C-7.420000076293945,-10.970000267028809 1.5049999952316284,-19.895000457763672 12.475000381469727,-19.895000457763672 C12.793999671936035,-19.895000457763672 13.104000091552734,-19.86199951171875 13.420000076293945,-19.847000122070312 C13.420000076293945,-19.847000122070312 13.420000076293945,-25.871000289916992 13.420000076293945,-25.871000289916992 C13.105999946594238,-25.881999969482422 12.791999816894531,-25.895000457763672 12.475000381469727,-25.895000457763672 C-1.8029999732971191,-25.895000457763672 -13.420000076293945,-14.277999877929688 -13.420000076293945,0 C-13.420000076293945,14.279000282287598 -1.8029999732971191,25.895000457763672 12.475000381469727,25.895000457763672 C12.791999816894531,25.895000457763672 13.105999946594238,25.881999969482422 13.420000076293945,25.871000289916992 C13.420000076293945,25.871000289916992 13.420000076293945,19.847000122070312 13.420000076293945,19.847000122070312 C13.104000091552734,19.86199951171875 12.793999671936035,19.895000457763672 12.475000381469727,19.895000457763672z"></path></g></g><g clip-path="url(#__lottie_element_208)" transform="matrix(2,0,0,2,174,123.04092407226562)" opacity="1" style="display: block;"><g opacity="1" transform="matrix(1,0,0,1,39.41999816894531,26)"><path fill="rgb(252,252,208)" fill-opacity="1" d=" M12.475000381469727,0 C12.475000381469727,-13.961999893188477 1.3669999837875366,-25.371000289916992 -12.475000381469727,-25.871000289916992 C-12.475000381469727,-25.871000289916992 -12.475000381469727,-19.847000122070312 -12.475000381469727,-19.847000122070312 C-1.9450000524520874,-19.349000930786133 6.474999904632568,-10.651000022888184 6.474999904632568,0 C6.474999904632568,10.651000022888184 -1.9450000524520874,19.349000930786133 -12.475000381469727,19.847000122070312 C-12.475000381469727,19.847000122070312 -12.475000381469727,25.871000289916992 -12.475000381469727,25.871000289916992 C1.3669999837875366,25.371000289916992 12.475000381469727,13.961999893188477 12.475000381469727,0z"></path></g><g opacity="1" transform="matrix(1,0,0,1,13.524999618530273,26)"><path fill="rgb(252,252,208)" fill-opacity="1" d=" M12.475000381469727,19.895000457763672 C1.5049999952316284,19.895000457763672 -7.420000076293945,10.970000267028809 -7.420000076293945,0 C-7.420000076293945,-10.970000267028809 1.5049999952316284,-19.895000457763672 12.475000381469727,-19.895000457763672 C12.793999671936035,-19.895000457763672 13.104000091552734,-19.86199951171875 13.420000076293945,-19.847000122070312 C13.420000076293945,-19.847000122070312 13.420000076293945,-25.871000289916992 13.420000076293945,-25.871000289916992 C13.105999946594238,-25.881999969482422 12.791999816894531,-25.895000457763672 12.475000381469727,-25.895000457763672 C-1.8029999732971191,-25.895000457763672 -13.420000076293945,-14.277999877929688 -13.420000076293945,0 C-13.420000076293945,14.279000282287598 -1.8029999732971191,25.895000457763672 12.475000381469727,25.895000457763672 C12.791999816894531,25.895000457763672 13.105999946594238,25.881999969482422 13.420000076293945,25.871000289916992 C13.420000076293945,25.871000289916992 13.420000076293945,19.847000122070312 13.420000076293945,19.847000122070312 C13.104000091552734,19.86199951171875 12.793999671936035,19.895000457763672 12.475000381469727,19.895000457763672z"></path></g></g></g></svg>