<svg xmlns="http://www.w3.org/2000/svg" viewBox="0 0 460 460" width="460" height="460" preserveAspectRatio="xMidYMid meet" style="width: 100%; height: 100%; transform: translate3d(0px, 0px, 0px); content-visibility: visible;"><defs><clipPath id="__lottie_element_210"><rect width="460" height="460" x="0" y="0"></rect></clipPath><clipPath id="__lottie_element_215"><path d="M0,0 L460,0 L460,460 L0,460z"></path></clipPath><mask id="__lottie_element_224" mask-type="alpha"><g transform="matrix(1,0,0,1,0,0)" opacity="1" style="display: block;"><g opacity="1" transform="matrix(1,0,0,1,230,230)"><path fill="rgb(217,217,217)" fill-opacity="1" d=" M211.08200073242188,230 C211.08200073242188,230 -211.08200073242188,230 -211.08200073242188,230 C-221.52999877929688,230 -230,221.52999877929688 -230,211.08200073242188 C-230,211.08200073242188 -230,-211.08200073242188 -230,-211.08200073242188 C-230,-221.52999877929688 -221.52999877929688,-230 -211.08200073242188,-230 C-211.08200073242188,-230 211.08200073242188,-230 211.08200073242188,-230 C221.52999877929688,-230 230,-221.52999877929688 230,-211.08200073242188 C230,-211.08200073242188 230,211.08200073242188 230,211.08200073242188 C230,221.52999877929688 221.52999877929688,230 211.08200073242188,230z"></path></g></g></mask></defs><g clip-path="url(#__lottie_element_210)"><g transform="matrix(1,0,0,1,0,0)" opacity="1" style="display: block;"><g opacity="1" transform="matrix(1,0,0,1,230,230)"><path fill="rgb(102,194,204)" fill-opacity="1" d=" M211.08200073242188,230 C211.08200073242188,230 -211.08200073242188,230 -211.08200073242188,230 C-221.52999877929688,230 -230,221.52999877929688 -230,211.08200073242188 C-230,211.08200073242188 -230,-211.08200073242188 -230,-211.08200073242188 C-230,-221.52999877929688 -221.52999877929688,-230 -211.08200073242188,-230 C-211.08200073242188,-230 211.08200073242188,-230 211.08200073242188,-230 C221.52999877929688,-230 230,-221.52999877929688 230,-211.08200073242188 C230,-211.08200073242188 230,211.08200073242188 230,211.08200073242188 C230,221.52999877929688 221.52999877929688,230 211.08200073242188,230z"></path></g></g><g clip-path="url(#__lottie_element_215)" transform="matrix(1,0,0,1,0,0)" opacity="1" style="display: block;"><g transform="matrix(0.41998034715652466,0.07094262540340424,-0.07094262540340424,0.41998034715652466,321.4602966308594,314.5903625488281)" opacity="1" style="display: block;"><g opacity="1" transform="matrix(1,0,0,1,0,0)"><path fill="rgb(55,121,129)" fill-opacity="1" d=" M80.61699676513672,61.380001068115234 C82.43199920654297,41.47800064086914 78.91600036621094,21.45199966430664 70.427001953125,3.3610000610351562 C61.939998626708984,-14.732000350952148 48.78900146484375,-30.23699951171875 32.32400131225586,-41.5629997253418 C15.859000205993652,-52.888999938964844 -3.3259999752044678,-59.625999450683594 -23.256000518798828,-61.08100128173828 C-43.1879997253418,-62.5359992980957 -63.145999908447266,-58.6609992980957 -81.08200073242188,-49.847999572753906 C-81.08200073242188,-49.847999572753906 80.61699676513672,61.380001068115234 80.61699676513672,61.380001068115234z"></path></g></g><g transform="matrix(0.40975019335746765,0.1162804588675499,-0.1162804588675499,0.40975019335746765,391.306884765625,311.37548828125)" opacity="1" style="display: block;"><g opacity="1" transform="matrix(1,0,0,1,0,0)"><path fill="rgb(55,121,129)" fill-opacity="1" d=" M-82.28700256347656,39.73400115966797 C-82.57599639892578,22.59000015258789 -78.15599822998047,5.625 -69.37699890136719,-9.8100004196167 C-60.5989990234375,-25.246999740600586 -47.70600128173828,-38.72700119018555 -31.725000381469727,-49.18000030517578 C-15.744000434875488,-59.6349983215332 2.88700008392334,-66.77100372314453 22.68199920654297,-70.0250015258789 C42.47700119018555,-73.27899932861328 62.893001556396484,-72.55999755859375 82.30500030517578,-67.92500305175781 C82.30500030517578,-67.92500305175781 -82.30500030517578,72.02799987792969 -82.30500030517578,72.02799987792969 C-82.30500030517578,72.02799987792969 -82.30500030517578,39.73400115966797 -82.30500030517578,39.73400115966797 C-82.30500030517578,39.73400115966797 -82.28700256347656,39.73400115966797 -82.28700256347656,39.73400115966797z"></path></g></g><g transform="matrix(0.425929993391037,0,0,0.425929993391037,229.9989013671875,229.9990234375)" opacity="1" style="display: block;"><g opacity="1" transform="matrix(1,0,0,1,0,0)"><path stroke-linecap="butt" stroke-linejoin="miter" fill-opacity="0" stroke-miterlimit="4" stroke="rgb(55,121,129)" stroke-opacity="1" stroke-width="18" d=" M270,359.998046875 C270,343.1090393066406 279.9716491699219,309.3326721191406 279.9716491699219,283.9996643066406 C279.9716491699219,259.9996643066406 294.54632568359375,227.99952697753906 294.54632568359375,211.99952697753906"></path></g></g><g transform="matrix(0.4256473779678345,0.015513344667851925,-0.015513344667851925,0.4256473779678345,189.8922882080078,245.7225341796875)" opacity="1" style="display: block;"><g opacity="1" transform="matrix(1,0,0,1,0,0)"><path fill="rgb(55,121,129)" fill-opacity="1" d=" M-77.34500122070312,82.17400360107422 C-83.55799865722656,60.05799865722656 -83.77100372314453,36.6870002746582 -77.95899963378906,14.463000297546387 C-72.14900207519531,-7.761000156402588 -60.5260009765625,-28.035999298095703 -44.284000396728516,-44.279998779296875 C-28.04199981689453,-60.52399826049805 -7.767000198364258,-72.1510009765625 14.456999778747559,-77.96299743652344 C36.67900085449219,-83.7770004272461 60.04999923706055,-83.56800079345703 82.16600036621094,-77.35700225830078 C82.16600036621094,-77.35700225830078 -77.34500122070312,82.17400360107422 -77.34500122070312,82.17400360107422z"></path></g></g><g transform="matrix(0.42161068320274353,0.0605044923722744,-0.0605044923722744,0.42161068320274353,131.30789184570312,149.4292449951172)" opacity="1" style="display: block;"><g opacity="1" transform="matrix(1,0,0,1,0,0)"><path fill="rgb(55,121,129)" fill-opacity="1" d=" M-94.98200225830078,-89.39900207519531 C-69.41899871826172,-96.58000183105469 -42.40599822998047,-96.82599639892578 -16.718000411987305,-90.10900115966797 C8.970000267028809,-83.39399719238281 32.40599822998047,-69.95999908447266 51.18199920654297,-51.18600082397461 C69.95800018310547,-32.4119987487793 83.39700317382812,-8.97700023651123 90.11399841308594,16.711000442504883 C96.83399963378906,42.39699935913086 96.59200286865234,69.40899658203125 89.41300201416016,94.97200012207031 C89.41300201416016,94.97200012207031 -94.98200225830078,-89.39900207519531 -94.98200225830078,-89.39900207519531z"></path></g></g><g transform="matrix(0.425929993391037,0,0,0.425929993391037,230.0004119873047,229.99957275390625)" opacity="1" style="display: block;"><g opacity="1" transform="matrix(1,0,0,1,0,0)"><path stroke-linecap="butt" stroke-linejoin="miter" fill-opacity="0" stroke-miterlimit="4" stroke="rgb(55,121,129)" stroke-opacity="1" stroke-width="18" d=" M-195.99795532226562,315.9989013671875 C-195.99795532226562,263.9989013671875 -182.756103515625,160.0003662109375 -182.756103515625,82.0003662109375 C-182.756103515625,12.000367164611816 -156.26821899414062,-76.33110809326172 -156.26821899414062,-122.99810791015625"></path></g></g></g><g transform="matrix(1,0,0,1,230,230)" opacity="1" style="display: block;"><g opacity="1" transform="matrix(1,0,0,1,36.75400161743164,-138.8699951171875)"><path fill="rgb(253,209,70)" fill-opacity="1" d=" M0,-45.266998291015625 C24.98285675048828,-45.266998291015625 45.266998291015625,-24.98285675048828 45.266998291015625,0 C45.266998291015625,24.98285675048828 24.98285675048828,45.266998291015625 0,45.266998291015625 C-24.98285675048828,45.266998291015625 -45.266998291015625,24.98285675048828 -45.266998291015625,0 C-45.266998291015625,-24.98285675048828 -24.98285675048828,-45.266998291015625 0,-45.266998291015625z"></path></g></g><g mask="url(#__lottie_element_224)" style="display: block;"><g transform="matrix(1.850000023841858,0,0,1.850000023841858,-29,360.125)" opacity="1"><g opacity="1" transform="matrix(1,0,0,1,201.58900451660156,32.72700119018555)"><path fill="rgb(218,252,245)" fill-opacity="1" d=" M78.1780014038086,21.584999084472656 C78.1780014038086,21.584999084472656 25.222999572753906,-13.902000427246094 25.222999572753906,-13.902000427246094 C17.743999481201172,-18.913000106811523 8.970999717712402,-21.584999084472656 0,-21.584999084472656 C-8.970999717712402,-21.584999084472656 -17.743999481201172,-18.913000106811523 -25.224000930786133,-13.902000427246094 C-25.224000930786133,-13.902000427246094 -78.1780014038086,21.584999084472656 -78.1780014038086,21.584999084472656 C-78.1780014038086,21.584999084472656 78.1780014038086,21.584999084472656 78.1780014038086,21.584999084472656z"></path></g><g opacity="1" transform="matrix(1,0,0,1,98.02899932861328,27.562000274658203)"><path fill="rgb(0,11,80)" fill-opacity="1" d=" M98.02899932861328,26.750999450683594 C98.02899932861328,26.750999450683594 31.628000259399414,-17.22800064086914 31.628000259399414,-17.22800064086914 C22.249000549316406,-23.43899917602539 11.24899959564209,-26.750999450683594 0,-26.750999450683594 C-11.24899959564209,-26.750999450683594 -22.249000549316406,-23.43899917602539 -31.628000259399414,-17.22800064086914 C-31.628000259399414,-17.22800064086914 -98.02899932861328,26.750999450683594 -98.02899932861328,26.750999450683594 C-98.02899932861328,26.750999450683594 98.02899932861328,26.750999450683594 98.02899932861328,26.750999450683594z"></path></g></g></g></g></svg>