<svg width="2002" height="581" viewBox="0 0 2002 581" fill="none" xmlns="http://www.w3.org/2000/svg">
         <title>cloud illustration </title>
         <g clip-path="url(#clip0_702_46)">
            <rect width="2001.53" height="581" transform="translate(0.468903)" fill="#ffffff"></rect>
            <path d="M813.59 580.319H2332.81V564.343C2332.81 519.788 2301.01 481.577 2257.2 473.477C2214.96 465.668 2183.68 429.785 2181.69 386.878L2180.57 362.532C2177.15 288.634 2109.8 234.414 2036.88 246.859L2029.06 248.193C1986.36 255.48 1942.84 241.042 1912.96 209.68L1902.74 198.953C1845.02 138.37 1749.32 135.437 1688 192.373L1631.48 244.859C1612.68 262.311 1584.53 265.029 1562.74 251.494C1537.32 235.7 1504 242.307 1486.53 266.61L1481.32 273.856C1465.81 295.43 1438.93 305.688 1412.99 299.935L1318.98 279.087C1269.12 268.032 1218.69 295.135 1200.39 342.811L1192.46 363.489C1176.57 404.9 1130.26 425.752 1088.72 410.2C1048.86 395.275 1004.25 413.848 986.759 452.656L974.555 479.734C960.947 509.924 930.907 529.335 897.791 529.335H864.574C836.416 529.335 813.59 552.161 813.59 580.319Z" fill="#FEE27D"></path>
            <path d="M1102.7 589.337H-185.784V577.62C-185.784 544.927 -162.455 516.89 -130.307 510.946C-99.3157 505.217 -76.3583 478.888 -74.9028 447.404L-74.077 429.544C-71.5704 375.324 -22.1527 335.542 31.3516 344.673L37.0951 345.653C68.4249 351 100.361 340.406 122.285 317.396L128.9 310.453C171.742 265.487 242.771 263.311 288.286 305.569L328.824 343.207C342.616 356.012 363.271 358.006 379.257 348.075C397.914 336.486 422.359 341.335 435.181 359.167L439.003 364.482C450.385 380.312 470.104 387.838 489.138 383.617L564.655 366.872C598.383 359.393 632.946 375.407 649.047 405.974C663.039 432.536 691.253 448.482 721.227 446.767L793.23 442.647C825.436 440.805 857.4 449.196 884.549 466.621L925.559 492.942C948.88 507.91 977.315 512.671 1004.24 506.115L1007.88 505.228C1017.25 502.948 1026.98 502.658 1036.47 504.377C1074.82 511.327 1102.7 544.721 1102.7 583.696V589.337Z" fill="#FCFCD0"></path>
            <path d="M1059.61 581.002H2311.96V549.337C2311.96 528.407 2298.37 509.899 2278.41 503.625C2260.7 498.061 2247.8 482.77 2245.29 464.377L2244.34 457.351C2240.75 431.036 2220.05 410.345 2193.74 406.772L2189.13 406.146C2165.43 402.929 2145.4 387.002 2136.93 364.644L2128.91 343.484C2117.67 313.838 2082 302.042 2055.3 319.143C2038.91 329.645 2017.9 329.656 2001.5 319.171L1975.06 302.272C1874.38 237.928 1740.29 271.983 1682.51 376.566L1666.81 404.976C1650.59 434.337 1616.09 448.411 1583.96 438.772C1564.31 432.877 1543.07 435.737 1525.68 446.621L1514.73 453.479C1496.02 465.187 1472.62 466.53 1452.7 457.04L1446.36 454.023C1397.76 430.878 1339.54 449.587 1313.53 496.712L1312.37 498.804C1298.11 524.648 1266.59 535.499 1239.44 523.92L1210.09 511.407C1162.26 491.011 1106.79 502.571 1071.09 540.374C1063.72 548.177 1059.61 558.504 1059.61 569.237V581.002Z" fill="#FCFCD0"></path>
         </g>
         <defs>
            <clipPath id="clip0_702_46">
               <rect width="2001.53" height="581" fill="white" transform="translate(0.468903)"></rect>
            </clipPath>
         </defs>
      </svg>