<svg xmlns="http://www.w3.org/2000/svg" viewBox="0 0 460 460" width="460" height="460" preserveAspectRatio="xMidYMid meet" style="width: 100%; height: 100%; transform: translate3d(0px, 0px, 0px); content-visibility: visible;"><defs><clipPath id="__lottie_element_110"><rect width="460" height="460" x="0" y="0"></rect></clipPath></defs><g clip-path="url(#__lottie_element_110)"><g transform="matrix(1,0,0,1,0,0)" opacity="1" style="display: block;"><g opacity="1" transform="matrix(1,0,0,1,230,230)"><path fill="rgb(29,106,229)" fill-opacity="1" d=" M211.08200073242188,230 C211.08200073242188,230 -211.08200073242188,230 -211.08200073242188,230 C-221.52999877929688,230 -230,221.52999877929688 -230,211.08200073242188 C-230,211.08200073242188 -230,-211.08200073242188 -230,-211.08200073242188 C-230,-221.52999877929688 -221.52999877929688,-230 -211.08200073242188,-230 C-211.08200073242188,-230 211.08200073242188,-230 211.08200073242188,-230 C221.52999877929688,-230 230,-221.52999877929688 230,-211.08200073242188 C230,-211.08200073242188 230,211.08200073242188 230,211.08200073242188 C230,221.52999877929688 221.52999877929688,230 211.08200073242188,230z"></path></g></g><g transform="matrix(2,0,0,2,182,80)" opacity="1" style="display: block;"><g opacity="1" transform="matrix(1,0,0,1,23.875,19.51099967956543)"><path fill="rgb(0,11,80)" fill-opacity="1" d=" M20.81100082397461,-1.2960000038146973 C20.81100082397461,-1.2960000038146973 0,19.51099967956543 0,19.51099967956543 C0,19.51099967956543 -20.81999969482422,-1.312999963760376 -20.81999969482422,-1.312999963760376 C-22.777000427246094,-3.2809998989105225 -23.875,-5.942999839782715 -23.875,-8.718000411987305 C-23.875,-11.493000030517578 -22.777000427246094,-14.154999732971191 -20.81999969482422,-16.121999740600586 C-20.81999969482422,-16.121999740600586 -20.486000061035156,-16.454999923706055 -20.486000061035156,-16.454999923706055 C-18.518999099731445,-18.41200065612793 -15.857000350952148,-19.51099967956543 -13.081999778747559,-19.51099967956543 C-10.307000160217285,-19.51099967956543 -7.644999980926514,-18.41200065612793 -5.677000045776367,-16.454999923706055 C-5.677000045776367,-16.454999923706055 0,-10.765000343322754 0,-10.765000343322754 C0,-10.765000343322754 5.677000045776367,-16.437999725341797 5.677000045776367,-16.437999725341797 C7.644999980926514,-18.395000457763672 10.307000160217285,-19.493999481201172 13.081999778747559,-19.493999481201172 C15.857000350952148,-19.493999481201172 18.518999099731445,-18.395000457763672 20.486000061035156,-16.437999725341797 C20.486000061035156,-16.437999725341797 20.823999404907227,-16.104999542236328 20.823999404907227,-16.104999542236328 C22.77899932861328,-14.13599967956543 23.875,-11.472999572753906 23.87299919128418,-8.697999954223633 C23.8700008392334,-5.922999858856201 22.770000457763672,-3.26200008392334 20.81100082397461,-1.2960000038146973z"></path></g></g><g transform="matrix(2,0,0,2,70,159)" opacity="1" style="display: block;"><g opacity="1" transform="matrix(1,0,0,1,79.89600372314453,25.915000915527344)"><path fill="rgb(252,252,208)" fill-opacity="1" d=" M-43.04999923706055,-24.957000732421875 C-43.04999923706055,-24.957000732421875 43.06700134277344,-24.957000732421875 43.06700134277344,-24.957000732421875 C45.194000244140625,-24.957000732421875 47.23400115966797,-24.11199951171875 48.737998962402344,-22.607999801635742 C50.242000579833984,-21.104000091552734 51.08700180053711,-19.06399917602539 51.08700180053711,-16.937000274658203 C51.08700180053711,-16.937000274658203 51.08700180053711,24.958999633789062 51.08700180053711,24.958999633789062 C51.08700180053711,24.958999633789062 -51.08700180053711,24.958999633789062 -51.08700180053711,24.958999633789062 C-51.08700180053711,24.958999633789062 -51.08700180053711,-16.937000274658203 -51.08700180053711,-16.937000274658203 C-51.08700180053711,-17.992000579833984 -50.87900161743164,-19.035999298095703 -50.474998474121094,-20.010000228881836 C-50.07099914550781,-20.983999252319336 -49.479000091552734,-21.868999481201172 -48.731998443603516,-22.61400032043457 C-47.986000061035156,-23.358999252319336 -47.0989990234375,-23.948999404907227 -46.124000549316406,-24.35099983215332 C-45.14899826049805,-24.753000259399414 -44.10499954223633,-24.958999633789062 -43.04999923706055,-24.957000732421875z"></path></g><g opacity="1" transform="matrix(1,0,0,1,34.27299880981445,11.381999969482422)"><path fill="rgb(254,213,87)" fill-opacity="1" d=" M5.465000152587891,-7.302999973297119 C5.465000152587891,-7.349999904632568 5.458000183105469,-7.395999908447266 5.458000183105469,-7.442999839782715 C5.458000183105469,-7.442999839782715 5.458000183105469,-10.423999786376953 5.458000183105469,-10.423999786376953 C5.458000183105469,-10.423999786376953 2.572000026702881,-10.423999786376953 2.572000026702881,-10.423999786376953 C1.5180000066757202,-10.425999641418457 0.4729999899864197,-10.220000267028809 -0.5019999742507935,-9.817999839782715 C-1.4769999980926514,-9.416000366210938 -2.361999988555908,-8.826000213623047 -3.1089999675750732,-8.081000328063965 C-3.8550000190734863,-7.335999965667725 -4.448999881744385,-6.451000213623047 -4.853000164031982,-5.4770002365112305 C-5.256999969482422,-4.502999782562256 -5.465000152587891,-3.4579999446868896 -5.465000152587891,-2.4040000438690186 C-5.465000152587891,-2.4040000438690186 -5.465000152587891,10.425999641418457 -5.465000152587891,10.425999641418457 C-3.61899995803833,9.479999542236328 -1.906999945640564,8.258000373840332 -0.4129999876022339,6.763999938964844 C3.322000026702881,3.0290000438690186 5.427999973297119,-2.0250000953674316 5.465000152587891,-7.302999973297119z"></path></g><g opacity="1" transform="matrix(1,0,0,1,59.82400131225586,12.494999885559082)"><path fill="rgb(254,213,87)" fill-opacity="1" d=" M20.082000732421875,-11.536999702453613 C20.082000732421875,-11.536999702453613 -20.079999923706055,-11.536999702453613 -20.079999923706055,-11.536999702453613 C-20.079999923706055,-11.536999702453613 -20.079999923706055,-8.555999755859375 -20.079999923706055,-8.555999755859375 C-20.079999923706055,-8.508999824523926 -20.086000442504883,-8.461999893188477 -20.086999893188477,-8.414999961853027 C-20.048999786376953,-3.13700008392334 -17.94300079345703,1.9170000553131104 -14.208999633789062,5.651000022888184 C-10.4399995803833,9.420000076293945 -5.329999923706055,11.536999702453613 -0.0010000000474974513,11.536999702453613 C5.328000068664551,11.536999702453613 10.439000129699707,9.420000076293945 14.206999778747559,5.651000022888184 C17.951000213623047,1.9079999923706055 20.059999465942383,-3.1619999408721924 20.086999893188477,-8.454000473022461 C20.086999893188477,-8.48799991607666 20.082000732421875,-8.522000312805176 20.082000732421875,-8.555999755859375 C20.082000732421875,-8.555999755859375 20.082000732421875,-11.536999702453613 20.082000732421875,-11.536999702453613z"></path></g><g opacity="1" transform="matrix(1,0,0,1,39.73699951171875,2.5190000534057617)"><path fill="rgb(254,213,87)" fill-opacity="1" d=" M0.007000000216066837,-1.5609999895095825 C0.007000000216066837,-1.5609999895095825 -0.007000000216066837,-1.5609999895095825 -0.007000000216066837,-1.5609999895095825 C-0.007000000216066837,-1.5609999895095825 -0.007000000216066837,1.4199999570846558 -0.007000000216066837,1.4199999570846558 C-0.007000000216066837,1.4670000076293945 0,1.5140000581741333 0,1.5609999895095825 C0,1.5140000581741333 0.007000000216066837,1.4670000076293945 0.007000000216066837,1.4199999570846558 C0.007000000216066837,1.4199999570846558 0.007000000216066837,-1.5609999895095825 0.007000000216066837,-1.5609999895095825z"></path></g><g opacity="1" transform="matrix(1,0,0,1,99.99800109863281,12.494999885559082)"><path fill="rgb(254,213,87)" fill-opacity="1" d=" M20.079999923706055,-11.536999702453613 C20.079999923706055,-11.536999702453613 -20.082000732421875,-11.536999702453613 -20.082000732421875,-11.536999702453613 C-20.082000732421875,-11.536999702453613 -20.082000732421875,-8.555999755859375 -20.082000732421875,-8.555999755859375 C-20.082000732421875,-8.522000312805176 -20.086999893188477,-8.48799991607666 -20.086999893188477,-8.454000473022461 C-20.059999465942383,-3.1619999408721924 -17.951000213623047,1.9079999923706055 -14.206999778747559,5.651000022888184 C-10.437999725341797,9.420000076293945 -5.328000068664551,11.536999702453613 0.0010000000474974513,11.536999702453613 C5.329999923706055,11.536999702453613 10.440999984741211,9.420000076293945 14.208999633789062,5.651000022888184 C17.944000244140625,1.9170000553131104 20.049999237060547,-3.13700008392334 20.086999893188477,-8.414999961853027 C20.086999893188477,-8.461999893188477 20.079999923706055,-8.508999824523926 20.079999923706055,-8.555999755859375 C20.079999923706055,-8.555999755859375 20.079999923706055,-11.536999702453613 20.079999923706055,-11.536999702453613z"></path></g><g opacity="1" transform="matrix(1,0,0,1,79.91100311279297,2.499000072479248)"><path fill="rgb(254,213,87)" fill-opacity="1" d=" M0.004999999888241291,-1.5420000553131104 C0.004999999888241291,-1.5420000553131104 -0.004999999888241291,-1.5420000553131104 -0.004999999888241291,-1.5420000553131104 C-0.004999999888241291,-1.5420000553131104 -0.004999999888241291,1.4390000104904175 -0.004999999888241291,1.4390000104904175 C-0.004999999888241291,1.4730000495910645 0,1.5080000162124634 0,1.5420000553131104 C0,1.5080000162124634 0.004999999888241291,1.4730000495910645 0.004999999888241291,1.4390000104904175 C0.004999999888241291,1.4390000104904175 0.004999999888241291,-1.5420000553131104 0.004999999888241291,-1.5420000553131104z"></path></g><g opacity="1" transform="matrix(1,0,0,1,125.53399658203125,11.37600040435791)"><path fill="rgb(254,213,87)" fill-opacity="1" d=" M3.0999999046325684,-8.069000244140625 C1.5959999561309814,-9.572999954223633 -0.4440000057220459,-10.418000221252441 -2.571000099182129,-10.418000221252441 C-2.571000099182129,-10.418000221252441 -5.441999912261963,-10.418000221252441 -5.441999912261963,-10.418000221252441 C-5.441999912261963,-10.418000221252441 -5.441999912261963,-7.436999797821045 -5.441999912261963,-7.436999797821045 C-5.441999912261963,-7.389999866485596 -5.448999881744385,-7.343999862670898 -5.448999881744385,-7.296000003814697 C-5.4120001792907715,-2.0190000534057617 -3.305999994277954,3.0360000133514404 0.42899999022483826,6.769999980926514 C1.9149999618530273,8.255999565124512 3.615000009536743,9.473999977111816 5.448999881744385,10.418000221252441 C5.448999881744385,10.418000221252441 5.448999881744385,-2.3980000019073486 5.448999881744385,-2.3980000019073486 C5.448999881744385,-4.525000095367432 4.604000091552734,-6.565000057220459 3.0999999046325684,-8.069000244140625z"></path></g><g opacity="1" transform="matrix(1,0,0,1,120.08499908447266,2.5190000534057617)"><path fill="rgb(254,213,87)" fill-opacity="1" d=" M-0.007000000216066837,1.4199999570846558 C-0.007000000216066837,1.4670000076293945 0,1.5140000581741333 0,1.5609999895095825 C0,1.5140000581741333 0.007000000216066837,1.4670000076293945 0.007000000216066837,1.4199999570846558 C0.007000000216066837,1.4199999570846558 0.007000000216066837,-1.5609999895095825 0.007000000216066837,-1.5609999895095825 C0.007000000216066837,-1.5609999895095825 -0.007000000216066837,-1.5609999895095825 -0.007000000216066837,-1.5609999895095825 C-0.007000000216066837,-1.5609999895095825 -0.007000000216066837,1.4199999570846558 -0.007000000216066837,1.4199999570846558z"></path></g><g opacity="1" transform="matrix(1,0,0,1,79.81300354003906,75.9990005493164)"><path fill="rgb(252,252,208)" fill-opacity="1" d=" M-57.81999969482422,-24.95800018310547 C-57.81999969482422,-24.95800018310547 57.82099914550781,-24.95800018310547 57.82099914550781,-24.95800018310547 C59.946998596191406,-24.957000732421875 61.98699951171875,-24.111000061035156 63.4900016784668,-22.607999801635742 C64.99299621582031,-21.104000091552734 65.83599853515625,-19.06399917602539 65.83599853515625,-16.937999725341797 C65.83599853515625,-16.937999725341797 65.83599853515625,24.95800018310547 65.83599853515625,24.95800018310547 C65.83599853515625,24.95800018310547 -65.83599853515625,24.95800018310547 -65.83599853515625,24.95800018310547 C-65.83599853515625,24.95800018310547 -65.83599853515625,-16.937999725341797 -65.83599853515625,-16.937999725341797 C-65.83599853515625,-19.06399917602539 -64.99099731445312,-21.104000091552734 -63.487998962402344,-22.607999801635742 C-61.98500061035156,-24.111000061035156 -59.94599914550781,-24.957000732421875 -57.81999969482422,-24.95800018310547z"></path></g><g opacity="1" transform="matrix(1,0,0,1,26.809999465942383,62.37099838256836)"><path fill="rgb(254,213,87)" fill-opacity="1" d=" M6.947999954223633,5.443999767303467 C10.715999603271484,1.6759999990463257 12.833000183105469,-3.434999942779541 12.833000183105469,-8.763999938964844 C12.833000183105469,-8.763999938964844 12.833000183105469,-11.329000473022461 12.833000183105469,-11.329000473022461 C12.833000183105469,-11.329000473022461 -4.816999912261963,-11.329000473022461 -4.816999912261963,-11.329000473022461 C-6.943999767303467,-11.32800006866455 -8.982999801635742,-10.482999801635742 -10.486000061035156,-8.979000091552734 C-11.98900032043457,-7.474999904632568 -12.833000183105469,-5.435999870300293 -12.833000183105469,-3.309000015258789 C-12.833000183105469,-3.309000015258789 -12.833000183105469,10.527999877929688 -12.833000183105469,10.527999877929688 C-11.03600025177002,11.04800033569336 -9.163999557495117,11.329000473022461 -7.260000228881836,11.329000473022461 C-1.930999994277954,11.329000473022461 3.180000066757202,9.211999893188477 6.947999954223633,5.443999767303467z"></path></g><g opacity="1" transform="matrix(1,0,0,1,59.73699951171875,62.37099838256836)"><path fill="rgb(254,213,87)" fill-opacity="1" d=" M-14.208000183105469,5.443999767303467 C-10.4399995803833,9.211999893188477 -5.328000068664551,11.329000473022461 0.0010000000474974513,11.329000473022461 C5.329999923706055,11.329000473022461 10.4399995803833,9.211999893188477 14.208000183105469,5.443999767303467 C17.969999313354492,1.680999994277954 20.086000442504883,-3.4200000762939453 20.091999053955078,-8.741000175476074 C20.091999053955078,-8.74899959564209 20.091999053955078,-8.755999565124512 20.091999053955078,-8.763999938964844 C20.091999053955078,-8.763999938964844 20.091999053955078,-11.329000473022461 20.091999053955078,-11.329000473022461 C20.091999053955078,-11.329000473022461 -20.091999053955078,-11.329000473022461 -20.091999053955078,-11.329000473022461 C-20.091999053955078,-11.329000473022461 -20.091999053955078,-8.763999938964844 -20.091999053955078,-8.763999938964844 C-20.091999053955078,-3.434999942779541 -17.97599983215332,1.6759999990463257 -14.208000183105469,5.443999767303467z"></path></g><g opacity="1" transform="matrix(1,0,0,1,99.91400146484375,62.37099838256836)"><path fill="rgb(254,213,87)" fill-opacity="1" d=" M20.06999969482422,-11.329000473022461 C20.06999969482422,-11.329000473022461 -20.083999633789062,-11.329000473022461 -20.083999633789062,-11.329000473022461 C-20.083999633789062,-11.329000473022461 -20.083999633789062,-8.763999938964844 -20.083999633789062,-8.763999938964844 C-20.083999633789062,-8.756999969482422 -20.084999084472656,-8.74899959564209 -20.084999084472656,-8.741999626159668 C-20.07900047302246,-3.4210000038146973 -17.96299934387207,1.680999994277954 -14.201000213623047,5.442999839782715 C-10.432999610900879,9.211999893188477 -5.322000026702881,11.329000473022461 0.007000000216066837,11.329000473022461 C5.335999965667725,11.329000473022461 10.446999549865723,9.211999893188477 14.21500015258789,5.442999839782715 C17.910999298095703,1.746999979019165 20.006000518798828,-3.243000030517578 20.084999084472656,-8.461999893188477 C20.08300018310547,-8.562999725341797 20.06999969482422,-8.663000106811523 20.06999969482422,-8.763999938964844 C20.06999969482422,-8.763999938964844 20.06999969482422,-11.329000473022461 20.06999969482422,-11.329000473022461z"></path></g><g opacity="1" transform="matrix(1,0,0,1,79.8290023803711,52.334999084472656)"><path fill="rgb(254,213,87)" fill-opacity="1" d=" M0.0010000000474974513,-1.2940000295639038 C0.0010000000474974513,-1.2940000295639038 -0.0010000000474974513,-1.2940000295639038 -0.0010000000474974513,-1.2940000295639038 C-0.0010000000474974513,-1.2940000295639038 -0.0010000000474974513,1.2719999551773071 -0.0010000000474974513,1.2719999551773071 C-0.0010000000474974513,1.2790000438690186 0,1.2869999408721924 0,1.2940000295639038 C0,1.2869999408721924 0.0010000000474974513,1.2790000438690186 0.0010000000474974513,1.2719999551773071 C0.0010000000474974513,1.2719999551773071 0.0010000000474974513,-1.2940000295639038 0.0010000000474974513,-1.2940000295639038z"></path></g><g opacity="1" transform="matrix(1,0,0,1,132.82400512695312,62.37099838256836)"><path fill="rgb(254,213,87)" fill-opacity="1" d=" M10.477999687194824,-8.979000091552734 C8.975000381469727,-10.482999801635742 6.935999870300293,-11.32800006866455 4.809999942779541,-11.329000473022461 C4.809999942779541,-11.329000473022461 -12.8100004196167,-11.329000473022461 -12.8100004196167,-11.329000473022461 C-12.8100004196167,-11.329000473022461 -12.8100004196167,-8.763999938964844 -12.8100004196167,-8.763999938964844 C-12.8100004196167,-8.661999702453613 -12.822999954223633,-8.562999725341797 -12.824999809265137,-8.461000442504883 C-12.746000289916992,-3.242000102996826 -10.651000022888184,1.7480000257492065 -6.954999923706055,5.443999767303467 C-3.186000108718872,9.211999893188477 1.9240000247955322,11.329000473022461 7.252999782562256,11.329000473022461 C9.156000137329102,11.329000473022461 11.029000282287598,11.04800033569336 12.824999809265137,10.529000282287598 C12.824999809265137,10.529000282287598 12.824999809265137,-3.309000015258789 12.824999809265137,-3.309000015258789 C12.824999809265137,-5.435999870300293 11.980999946594238,-7.474999904632568 10.477999687194824,-8.979000091552734z"></path></g><g opacity="1" transform="matrix(1,0,0,1,119.9990005493164,52.474998474121094)"><path fill="rgb(254,213,87)" fill-opacity="1" d=" M-0.014999999664723873,1.1319999694824219 C-0.014999999664723873,1.2339999675750732 -0.0020000000949949026,1.3320000171661377 0,1.434000015258789 C0.0020000000949949026,1.3320000171661377 0.014999999664723873,1.2339999675750732 0.014999999664723873,1.1319999694824219 C0.014999999664723873,1.1319999694824219 0.014999999664723873,-1.434000015258789 0.014999999664723873,-1.434000015258789 C0.014999999664723873,-1.434000015258789 -0.014999999664723873,-1.434000015258789 -0.014999999664723873,-1.434000015258789 C-0.014999999664723873,-1.434000015258789 -0.014999999664723873,1.1319999694824219 -0.014999999664723873,1.1319999694824219z"></path></g><g opacity="1" transform="matrix(1,0,0,1,79.81400299072266,104.29299926757812)"><path fill="rgb(0,11,80)" fill-opacity="1" d=" M79.81400299072266,-3.5420000553131104 C79.81400299072266,-3.5420000553131104 -79.81400299072266,-3.5420000553131104 -79.81400299072266,-3.5420000553131104 C-79.81400299072266,-3.5420000553131104 -79.81400299072266,3.5420000553131104 -79.81400299072266,3.5420000553131104 C-79.81400299072266,3.5420000553131104 79.81400299072266,3.5420000553131104 79.81400299072266,3.5420000553131104 C79.81400299072266,3.5420000553131104 79.81400299072266,-3.5420000553131104 79.81400299072266,-3.5420000553131104z"></path></g><g opacity="1" transform="matrix(1,0,0,1,79.81400299072266,129.24200439453125)"><path fill="rgb(0,11,80)" fill-opacity="1" d=" M39.888999938964844,21.408000946044922 C39.888999938964844,21.408000946044922 -39.888999938964844,21.408000946044922 -39.888999938964844,21.408000946044922 C-39.888999938964844,21.408000946044922 -34.553001403808594,18.10300064086914 -34.553001403808594,18.10300064086914 C-27.948999404907227,14.015999794006348 -22.499000549316406,8.309000015258789 -18.7189998626709,1.524999976158142 C-14.9399995803833,-5.258999824523926 -12.956000328063965,-12.897000312805176 -12.956000328063965,-20.663000106811523 C-12.956000328063965,-20.663000106811523 -12.956000328063965,-21.406999588012695 -12.956000328063965,-21.406999588012695 C-12.956000328063965,-21.406999588012695 12.956000328063965,-21.406999588012695 12.956000328063965,-21.406999588012695 C12.956000328063965,-21.406999588012695 12.956000328063965,-20.663000106811523 12.956000328063965,-20.663000106811523 C12.956999778747559,-12.897000312805176 14.9399995803833,-5.258999824523926 18.7189998626709,1.524999976158142 C22.499000549316406,8.309000015258789 27.948999404907227,14.015999794006348 34.553001403808594,18.10300064086914 C34.553001403808594,18.10300064086914 39.888999938964844,21.408000946044922 39.888999938964844,21.408000946044922z"></path></g></g></g></svg>